<?xml version="1.0" encoding="iso-8859-1"?>
<!-- Generator: Adobe Illustrator 16.0.0, SVG Export Plug-In . SVG Version: 6.00 Build 0)  -->
<!DOCTYPE svg PUBLIC "-//W3C//DTD SVG 1.1//EN" "http://www.w3.org/Graphics/SVG/1.1/DTD/svg11.dtd">
<svg version="1.1" id="Capa_1" xmlns="http://www.w3.org/2000/svg" xmlns:xlink="http://www.w3.org/1999/xlink" x="0px" y="0px"
	 width="101.286px" height="101.286px" viewBox="0 0 101.286 101.286" style="enable-background:new 0 0 101.286 101.286;"
	 xml:space="preserve">
<g>
	<g>
		<path d="M87.626,64.261H63.76c-1.564,0-2.834,0.178-2.834,1.447l1.701,31.785c0,1.27,1.27,2.297,2.837,2.297h19.896
			c1.567,0,2.837-1.027,2.837-2.297l2.269-31.785C90.459,64.439,89.194,64.261,87.626,64.261z M83.246,82.269l1.14,2.687
			c0,0.146-0.119,0.27-0.27,0.27h-2.561c-0.15,0-0.431-0.137-0.547-0.27l-0.702-1.428c-0.126-0.219,0.014-0.305,0.209-0.39
			l2.303-1.068C83.157,81.903,83.246,82.269,83.246,82.269z M74.875,73.85c0.287-0.161,3.039-0.688,3.24-0.801
			c0.202-0.116,0.288,0.041,0.288,0.041c0.38,0.671,1.68,2.93,2.193,3.829c0.164,0.291,0.277,0.479,0.277,0.479
			s0.694-0.4,1.133-0.65c0.438-0.25,0.294,0.264,0.294,0.264s-0.972,3.826-1.085,4.236c-0.078,0.288-0.373,0.186-0.373,0.186
			l-4.223-1.082c0,0-0.514-0.13-0.15-0.332c0.359-0.205,1.231-0.701,1.231-0.701s-0.123-0.216-0.308-0.541
			c-0.534-0.924-2.252-3.925-2.642-4.613C74.752,74.168,74.594,74.011,74.875,73.85z M73.842,88.863
			c0.014,0.366-0.359,0.298-0.359,0.298l-2.916-0.116c-0.134-0.068-0.191-0.226-0.127-0.362l1.096-2.313
			c0.062-0.134,0.301-0.336,0.476-0.38l1.588-0.021c0.257-0.024,0.273,0.144,0.267,0.353L73.842,88.863z M73.684,83.857
			c-0.373-0.179-1.276-0.609-1.276-0.609s-0.109,0.223-0.263,0.558c-0.456,0.969-1.931,4.097-2.272,4.812
			c0,0-0.038,0.216-0.332,0.079c-0.295-0.137-2.304-2.102-2.513-2.197c-0.215-0.096-0.13-0.26-0.13-0.26
			c0.325-0.698,1.444-3.057,1.883-3.99c0.144-0.302,0.235-0.504,0.235-0.504s-0.725-0.338-1.184-0.558
			c-0.451-0.212,0.052-0.396,0.052-0.396s3.695-1.39,4.089-1.533c0.284-0.103,0.37,0.205,0.37,0.205l1.526,4.079
			C73.87,83.542,74.057,84.028,73.684,83.857z M74.341,78.757l-2.063-1.472c-0.314-0.201-0.045-0.465-0.045-0.465L74,74.5
			c0.13-0.072,0.294-0.027,0.362,0.1l1.273,2.221c0.075,0.13,0.103,0.438,0.041,0.609l-0.89,1.313
			C74.657,78.963,74.512,78.887,74.341,78.757z M83.595,89.25c0,0.233-0.182,0.229-0.182,0.229c-0.767,0-3.378,0-4.411,0
			c-0.335,0-0.551,0-0.551,0s0,0.805,0,1.308s-0.373,0.12-0.373,0.12s-2.841-2.748-3.139-3.043
			c-0.215-0.216,0.024-0.424,0.024-0.424L78,84.322c0,0,0.359-0.383,0.359,0.031s0,1.413,0,1.413s0.247,0,0.62,0
			c1.07,0,4.527,0,5.321,0c0,0,0.216-0.055,0.216,0.273C84.512,86.369,83.595,89.017,83.595,89.25z"/>
		<circle cx="32.61" cy="8.943" r="8.943"/>
		<path d="M61.361,46.134v-0.007c0.011,0.014,0.018,0.021,0.024,0.027c1.472,1.47,3.867,1.47,5.342,0
			c1.472-1.472,1.469-3.86-0.003-5.335c-0.011,0-0.014-0.012-0.018-0.025L52.008,26.115c-4.705-4.875-10.874-5.341-10.874-5.341
			H23.208c-12.84,0.242-12.385,9.668-12.385,9.668l-0.003,22.006h0.01c-0.003,0.055-0.007,0.106-0.007,0.157
			c0,2.091,1.692,3.778,3.774,3.778c2.084,0,3.773-1.688,3.773-3.778c0-0.051-0.007-0.103-0.011-0.157h0.011V32.083h2.363
			L20.701,96.18c0,2.819,2.283,5.105,5.106,5.105c2.808,0,5.096-2.282,5.096-5.105l-0.01-41.364h2.277v41.401l0.043,0.034
			c0.027,2.779,2.288,5.021,5.066,5.021c2.805,0,5.072-2.272,5.072-5.078L43.335,31.98h2.45L61.361,46.134z"/>
		<polygon points="70.071,58.645 72.114,58.645 75.272,61.028 75.724,58.645 77.503,58.645 77.503,57.17 79.366,57.17 
			79.366,54.932 77.64,54.932 79.221,54.327 77.503,52.725 77.503,51.212 75.875,51.212 73.469,48.976 72.134,51.212 70.071,51.212 
			70.071,54.251 67.833,55.412 70.071,57.102 		"/>
	</g>
</g>
<g>
</g>
<g>
</g>
<g>
</g>
<g>
</g>
<g>
</g>
<g>
</g>
<g>
</g>
<g>
</g>
<g>
</g>
<g>
</g>
<g>
</g>
<g>
</g>
<g>
</g>
<g>
</g>
<g>
</g>
</svg>
